<svg width="1110" height="48" viewBox="0 0 1110 48" fill="none" xmlns="http://www.w3.org/2000/svg">
<path d="M1099.23 38.1625C1099.03 37.6625 1098.55 37.3375 1098 37.3375H1080.67V19.9999C1080.67 19.2625 1080.07 18.6625 1079.34 18.6625C1078.99 18.6625 1078.64 18.7999 1078.39 19.0499L1070.39 27.0499C1070.14 27.2999 1070 27.6375 1070 27.9999V46.6624C1070 47.3999 1070.6 47.9999 1071.34 47.9999H1090.01C1090.36 47.9999 1090.69 47.8625 1090.96 47.6125L1098.96 39.6125C1099.32 39.2249 1099.43 38.6499 1099.23 38.1625Z" fill="black"/>
<path d="M1108.67 8H1073.99C1073.25 8 1072.65 8.6 1072.65 9.325C1072.65 9.675 1072.79 10.025 1073.04 10.275L1081.04 18.275C1081.29 18.525 1081.63 18.6625 1081.99 18.6625H1099.33V36C1099.33 36.35 1099.47 36.6875 1099.72 36.95L1107.72 44.95C1108.25 45.475 1109.09 45.475 1109.61 44.95C1109.86 44.7 1110 44.3625 1110 44V9.3375C1110 8.6 1109.41 8 1108.67 8Z" fill="black"/>
<path d="M801.181 14.0914C799.198 14.0914 798.623 14.9703 798.623 16.8984V20.1042H803.914L803.386 25.2846H798.623V41H792.277V25.2846H788V20.1042H792.277V17.0068C792.277 11.7645 794.392 9.00005 800.298 9.00005C801.536 8.9979 802.772 9.0703 804 9.21686V14.0914" fill="black"/>
<path fill-rule="evenodd" clip-rule="evenodd" d="M813.713 20C807.814 20 805 24.436 805 30.3403V31.6558C805 37.5601 807.802 42 813.713 42C816.929 42 818.938 40.4026 819.833 38.3627V41.5693H826V20.4268H819.833V23.6804C818.895 21.6405 816.929 20 813.713 20ZM815.589 36.9806C812.617 36.9806 811.435 34.8781 811.435 31.7459L811.427 30.2385C811.427 27.0867 812.59 24.9998 815.581 24.9998C818.217 24.9998 819.557 26.9066 819.557 29.9253V32.0591C819.557 35.0739 818.225 36.9963 815.589 36.9806Z" fill="black"/>
<path d="M838.888 20C841.368 20 843.715 20.532 844.996 21.42L843.582 25.9459C842.254 25.3114 840.802 24.9775 839.329 24.968C835.877 24.968 834.374 26.963 834.374 30.3819V31.6181C834.374 35.037 835.877 37.032 839.329 37.032C840.802 37.0225 842.254 36.6886 843.582 36.0541L845 40.58C843.719 41.468 841.372 42 838.892 42C831.409 42 828 37.963 828 31.489V30.511C828 24.037 831.409 20 838.892 20" fill="black"/>
<path fill-rule="evenodd" clip-rule="evenodd" d="M846.012 29.9074V31.7648L846 31.7804C846 37.9769 849.041 42 857.179 42C860.276 42 863.767 41.3249 865.464 40.4392L864.304 36.061C862.126 36.9185 859.803 37.3543 857.46 37.3448C853.882 37.3448 852.584 36.0571 852.45 33.1813H866V29.8216C866 23.9801 863.093 20 856.477 20C849.452 20 846.012 23.9372 846.012 29.9074ZM860.233 29.049H852.438L852.45 29.0216C852.45 26.1926 853.566 24.3781 856.477 24.3781C859.294 24.3781 860.233 26.1926 860.233 28.491V29.049Z" fill="black"/>
<path fill-rule="evenodd" clip-rule="evenodd" d="M880.304 42C886.149 42 888.98 37.5274 888.98 31.5798L889 30.2388C889 24.2911 886.181 19.8225 880.324 19.8225C877.356 19.8225 875.321 21.341 874.392 23.2184V9L868 9.57978V41.5504H874.017V38.332C874.904 40.3869 877.118 42 880.304 42ZM878.387 24.8749C881.44 24.8749 882.592 27.1072 882.592 30.1047V31.7139C882.592 34.7114 881.456 36.9595 878.402 36.9595C875.79 36.9595 874.392 35.0663 874.357 32.0255V29.7892C874.357 26.7522 875.774 24.8749 878.387 24.8749Z" fill="black"/>
<path fill-rule="evenodd" clip-rule="evenodd" d="M891 30.4697V31.5264C891 37.6164 894.458 42 901.5 42C908.542 42 912 37.6086 912 31.5264V30.4697C912 24.3914 908.546 20 901.5 20C894.454 20 891 24.3914 891 30.4697ZM901.5 25.0059C904.466 25.0059 905.619 27.225 905.619 30.0196V31.9843C905.619 34.7828 904.47 36.998 901.5 36.998C898.53 36.998 897.381 34.7828 897.381 31.9843V30.0274C897.381 27.2211 898.534 25.0059 901.5 25.0059Z" fill="black"/>
<path fill-rule="evenodd" clip-rule="evenodd" d="M915 30.4697V31.5264C915 37.6164 918.454 42 925.5 42C932.546 42 936 37.6086 936 31.5264V30.4697C936 24.3914 932.546 20 925.5 20C918.454 20 915 24.3914 915 30.4697ZM925.5 25.0059C928.47 25.0059 929.623 27.225 929.623 30.0196L929.611 31.9843C929.611 34.7828 928.458 36.998 925.488 36.998C922.518 36.998 921.37 34.7828 921.37 31.9843V30.0274C921.37 27.2211 922.53 25.0059 925.5 25.0059Z" fill="black"/>
<path d="M944.471 30.0542L950.855 20.0777H957.734L951.033 30.407L958 41H951.128L944.471 30.7598V41H938V9.56997L944.471 9" fill="black"/>
<path fill-rule="evenodd" clip-rule="evenodd" d="M641.538 30.0143L626.297 42L612.37 31.052C610.244 36.0283 605.336 39.2466 599.916 39.2174H588V12.7484H599.916C605.35 12.6951 610.274 15.9327 612.37 20.9366L626.297 10L631.415 14.0485L618.688 24.0499L621.133 25.9658L633.906 15.953L639.07 19.99L626.308 30.0257L628.753 31.9416L641.538 21.8717V12.7484H650.838V31.4854H660.081V39.2516H641.538V30.0143ZM604.749 25.9658C604.85 24.4309 604.278 22.9279 603.182 21.8469C602.085 20.7658 600.573 20.2131 599.037 20.3321H596.912V31.5994H598.922C602.064 31.5994 604.749 29.9002 604.749 25.9658ZM681 31.4854H671.769L671.734 12.7484H662.469V39.2516H681V31.4854Z" fill="black"/>
<path d="M384.112 32.854C384.487 33.8877 385.007 34.7716 385.671 35.5057C386.336 36.2398 387.123 36.8016 388.032 37.1911C388.942 37.5806 389.931 37.7754 391 37.7754C392.04 37.7754 393.014 37.5731 393.924 37.1685C394.834 36.764 395.628 36.1947 396.307 35.4607C396.986 34.7266 397.513 33.8503 397.888 32.8315C398.264 31.8128 398.451 30.6743 398.451 29.4158V10H403V41.4607H398.495V38.5393C397.484 39.6479 396.292 40.5018 394.921 41.1012C393.549 41.7004 392.069 42 390.48 42C388.863 42 387.354 41.7078 385.953 41.1236C384.552 40.5393 383.339 39.7079 382.314 38.6292C381.289 37.5505 380.48 36.2548 379.888 34.7416C379.296 33.2285 379 31.5432 379 29.6854V10H383.549V29.4158C383.549 30.6743 383.736 31.8202 384.112 32.854Z" fill="#010202"/>
<path fill-rule="evenodd" clip-rule="evenodd" d="M411.407 21.4607V10H407V41.4607H411.364V38.5843C412.382 39.6329 413.567 40.4644 414.92 41.0786C416.273 41.6929 417.735 42 419.305 42C420.935 42 422.462 41.6854 423.887 41.0562C425.313 40.427 426.549 39.5731 427.596 38.4944C428.644 37.4158 429.473 36.1499 430.084 34.6966C430.695 33.2435 431 31.6929 431 30.045C431 28.3971 430.695 26.839 430.084 25.3708C429.473 23.9026 428.644 22.6293 427.596 21.5506C426.549 20.4719 425.313 19.6179 423.887 18.9887C422.462 18.3595 420.935 18.045 419.305 18.045C417.735 18.045 416.28 18.352 414.942 18.9663C413.604 19.5806 412.425 20.412 411.407 21.4607ZM413.545 35.6631C412.847 34.944 412.302 34.105 411.909 33.1461C411.516 32.1874 411.32 31.1537 411.32 30.045C411.32 28.9364 411.524 27.8952 411.931 26.9214C412.338 25.9476 412.891 25.1012 413.589 24.3821C414.287 23.6631 415.102 23.1013 416.033 22.6967C416.964 22.2922 417.953 22.0899 419 22.0899C420.047 22.0899 421.036 22.2923 421.967 22.6967C422.898 23.1012 423.705 23.6631 424.389 24.3821C425.073 25.1012 425.618 25.9476 426.025 26.9214C426.433 27.8952 426.636 28.9364 426.636 30.045C426.636 31.1537 426.433 32.1874 426.025 33.1461C425.618 34.105 425.073 34.9441 424.389 35.6631C423.705 36.3823 422.898 36.9515 421.967 37.371C421.036 37.7905 420.047 38.0002 419 38.0002C417.924 38.0002 416.92 37.7905 415.989 37.371C415.058 36.9515 414.244 36.3822 413.545 35.6631Z" fill="#010202"/>
<path fill-rule="evenodd" clip-rule="evenodd" d="M436.336 21.548C435.298 22.6478 434.483 23.9208 433.89 25.3671C433.296 26.8135 433 28.3502 433 29.9773C433 31.6948 433.311 33.2843 433.934 34.7457C434.557 36.207 435.41 37.48 436.492 38.5649C437.575 39.6497 438.85 40.4935 440.318 41.096C441.786 41.6986 443.366 42 445.056 42C447.132 42 449.001 41.5631 450.662 40.6893C452.323 39.8155 453.716 38.6102 454.843 37.0734L451.596 34.6328C449.935 36.8927 447.755 38.0227 445.056 38.0227C444.107 38.0227 443.21 37.8569 442.365 37.5255C441.519 37.1941 440.763 36.7346 440.096 36.1469C439.428 35.5594 438.872 34.8663 438.427 34.0678C437.983 33.2694 437.686 32.4031 437.538 31.469H456V29.9775C456 28.2599 455.718 26.6705 455.155 25.209C454.591 23.7477 453.805 22.482 452.797 21.4124C451.788 20.3427 450.587 19.5066 449.193 18.9039C447.799 18.3013 446.287 18 444.656 18C442.995 18 441.453 18.3163 440.029 18.9491C438.605 19.5819 437.374 20.4481 436.336 21.548ZM437.627 27.853C438.042 26.0752 438.88 24.6515 440.14 23.5818C441.401 22.5122 442.876 21.9773 444.567 21.9773C446.257 21.9773 447.733 22.5122 448.993 23.5818C450.254 24.6515 451.077 26.0752 451.462 27.853H437.627Z" fill="#010202"/>
<path d="M464.693 23.0233C463.78 24.1128 463.323 25.5914 463.323 27.4591V41H459V17.1869H463.28V20.1285C463.822 19.1635 464.529 18.4009 465.399 17.8406C466.269 17.2802 467.303 17 468.502 17H470V21.3891H468.202C466.776 21.3892 465.606 21.9339 464.693 23.0233Z" fill="#010202"/>
<path d="M231.909 16.9867C228.082 23.7172 230.515 33.9312 234.748 40.1244C236.861 43.2206 239 46 241.93 46C241.985 46 242.04 45.9989 242.097 45.9967C243.473 45.941 244.468 45.5115 245.43 45.0965C246.51 44.6303 247.626 44.1481 249.378 44.1481C251.045 44.1481 252.108 44.6146 253.136 45.0656C254.15 45.5099 255.194 45.9696 256.737 45.9403C260.037 45.878 262.063 42.8789 263.851 40.2332C265.716 37.4707 266.652 34.7885 266.968 33.7636L266.981 33.7227C267.041 33.5406 266.956 33.3418 266.784 33.2616C266.779 33.2593 266.761 33.252 266.756 33.2499C266.175 33.009 261.077 30.7174 261.024 24.4713C260.974 19.3967 264.848 16.7094 265.625 16.2223L265.661 16.1995C265.746 16.1446 265.804 16.0575 265.824 15.9579C265.844 15.8585 265.823 15.755 265.767 15.6714C263.093 11.7059 258.994 11.1084 257.344 11.0364C257.105 11.0122 256.857 11 256.609 11C254.671 11 252.815 11.7417 251.323 12.3377C250.293 12.7491 249.404 13.1044 248.791 13.1044C248.101 13.1044 247.207 12.7447 246.171 12.3284C244.786 11.7714 243.216 11.1402 241.555 11.1402C241.515 11.1402 241.476 11.1407 241.438 11.1414C237.574 11.199 233.922 13.4391 231.909 16.9867Z" fill="black"/>
<path d="M256.558 0.000310518C254.162 0.104063 251.289 1.67214 249.571 3.8115C248.111 5.60971 246.685 8.60782 247.061 11.6299C247.084 11.819 247.229 11.9649 247.408 11.9796C247.57 11.993 247.735 11.9999 247.899 12C250.242 12 252.769 10.622 254.494 8.40312C256.311 6.06011 257.229 3.05324 256.951 0.359887C256.929 0.148828 256.755 -0.00793145 256.558 0.000310518Z" fill="black"/>
<path fill-rule="evenodd" clip-rule="evenodd" d="M40.6732 38.0831C46.027 38.0831 50.3894 33.9739 50.3894 28.3975C50.3894 22.7817 46.027 18.7119 40.6732 18.7119C35.3195 18.7119 30.957 22.7817 30.957 28.3975C30.957 33.9739 35.3195 38.0831 40.6732 38.0831ZM40.6732 22.5285C43.6078 22.5285 46.1361 24.9128 46.1361 28.3975C46.1361 31.8429 43.6078 34.2665 40.6732 34.2665C37.7387 34.2665 35.2103 31.8473 35.2103 28.3975C35.2103 24.9128 37.7387 22.5285 40.6732 22.5285Z" fill="black"/>
<path fill-rule="evenodd" clip-rule="evenodd" d="M61.6332 38.0831C66.9869 38.0831 71.3494 33.9739 71.3494 28.3975C71.3494 22.7817 66.9869 18.7119 61.6332 18.7119C56.2795 18.7119 51.917 22.7861 51.917 28.3975C51.917 33.9739 56.2795 38.0831 61.6332 38.0831ZM61.6332 22.5285C64.5677 22.5285 67.0961 24.9128 67.0961 28.3975C67.0961 31.8429 64.5677 34.2665 61.6332 34.2665C58.6987 34.2665 56.1703 31.8473 56.1703 28.3975C56.1703 24.9128 58.6987 22.5285 61.6332 22.5285Z" fill="black"/>
<path fill-rule="evenodd" clip-rule="evenodd" d="M91.4369 36.6857V19.3014H87.3976V20.8778H87.2491C86.2928 19.7381 84.4587 18.7119 82.1487 18.7119C77.3058 18.7119 72.8691 22.9651 72.8691 28.4324C72.8691 33.8604 77.3058 38.0788 82.1487 38.0788C84.4631 38.0788 86.2972 37.0526 87.2491 35.8779H87.3976V37.2709C87.3976 40.9783 85.4194 42.9478 82.2273 42.9478C79.6246 42.9478 78.0089 41.0875 77.3495 39.5111L73.6464 41.0526C74.7119 43.6203 77.5373 46.76 82.2316 46.76C87.2186 46.76 91.4369 43.8386 91.4369 36.6857ZM82.5286 22.5285C85.4238 22.5285 87.6989 25.0219 87.6989 28.4324C87.6989 31.808 85.4238 34.2665 82.5286 34.2665C79.5941 34.2665 77.1355 31.808 77.1355 28.4324C77.1355 25.0219 79.5941 22.5285 82.5286 22.5285Z" fill="black"/>
<path d="M98.0967 9.1048V37.4892H93.9482V9.1048H98.0967Z" fill="black"/>
<path fill-rule="evenodd" clip-rule="evenodd" d="M117.564 33.7862L114.263 31.5853C113.162 33.201 111.66 34.2665 109.494 34.2665C107.333 34.2665 105.791 33.2753 104.8 31.332L117.748 25.9696L117.306 24.8691C116.503 22.7075 114.044 18.7075 109.018 18.7075C104.027 18.7075 99.8828 22.6333 99.8828 28.3932C99.8828 33.8255 103.992 38.0788 109.494 38.0788C113.931 38.0788 116.499 35.3626 117.564 33.7862ZM112.756 24.5067L104.101 28.1006C103.992 24.3626 107.001 22.4543 109.162 22.4543C110.848 22.4543 112.28 23.2971 112.756 24.5067Z" fill="black"/>
<path d="M15.2534 25.8778V21.7686H29.1006C29.236 22.4848 29.3058 23.332 29.3058 24.249C29.3058 27.332 28.463 31.1442 25.7469 33.8604C23.1049 36.6115 19.7294 38.0788 15.2577 38.0788C6.96947 38.0788 0 31.3276 0 23.0394C0 14.7511 6.96947 8 15.2577 8C19.8429 8 23.1093 9.7991 25.5634 12.1441L22.6639 15.0437C20.904 13.393 18.5197 12.1092 15.2534 12.1092C9.20092 12.1092 4.46727 16.9869 4.46727 23.0394C4.46727 29.0918 9.20092 33.9696 15.2534 33.9696C19.1791 33.9696 21.415 32.3931 22.8473 30.9608C24.0089 29.7992 24.773 28.1398 25.0744 25.8735L15.2534 25.8778Z" fill="black"/>
</svg>
